<svg width="24" height="24" viewBox="0 0 24 24" fill="none" xmlns="http://www.w3.org/2000/svg">
<path d="M22.4881 1.78076L11.9881 12.2808M22.4881 1.78076V7.68701M22.4881 1.78076H16.5818M21.1756 12.937V18.5808C21.1756 20.0509 21.1756 20.786 20.8895 21.3475C20.6379 21.8414 20.2362 22.243 19.7423 22.4946C19.1809 22.7808 18.4457 22.7808 16.9756 22.7808H5.6881C4.21797 22.7808 3.48289 22.7808 2.92137 22.4946C2.42744 22.243 2.02587 21.8414 1.77421 21.3475C1.4881 20.786 1.4881 20.0509 1.4881 18.5808V7.29326C1.4881 5.82313 1.4881 5.08805 1.77421 4.52654C2.02587 4.0326 2.42744 3.63103 2.92137 3.37937C3.48289 3.09326 4.21795 3.09326 5.6881 3.09326H11.3318" stroke="#E0D9D9" stroke-opacity="0.6" stroke-width="2" stroke-linecap="round" stroke-linejoin="round"/>
</svg>
