<svg width="20" height="20" viewBox="0 0 20 20" fill="none" xmlns="http://www.w3.org/2000/svg">
<path fill-rule="evenodd" clip-rule="evenodd" d="M10.1133 15.0078C12.9351 15.0078 15.2226 12.7203 15.2226 9.8985C15.2226 7.0767 12.9351 4.78918 10.1133 4.78918C7.29148 4.78918 5.00397 7.0767 5.00397 9.8985C5.00397 12.7203 7.29148 15.0078 10.1133 15.0078ZM10.1133 13.3047C11.9944 13.3047 13.5195 11.7797 13.5195 9.8985C13.5195 8.0173 11.9944 6.49229 10.1133 6.49229C8.23208 6.49229 6.70707 8.0173 6.70707 9.8985C6.70707 11.7797 8.23208 13.3047 10.1133 13.3047Z" fill="#D8D8D8"/>
<path d="M15.2226 3.93774C14.7522 3.93774 14.371 4.319 14.371 4.7893C14.371 5.25959 14.7522 5.64085 15.2226 5.64085C15.6929 5.64085 16.0741 5.25959 16.0741 4.7893C16.0741 4.319 15.6929 3.93774 15.2226 3.93774Z" fill="#D8D8D8"/>
<path fill-rule="evenodd" clip-rule="evenodd" d="M1.30319 3.32123C0.746307 4.41417 0.746307 5.84491 0.746307 8.70639V11.0907C0.746307 13.9522 0.746307 15.383 1.30319 16.4759C1.79304 17.4373 2.57466 18.2189 3.53604 18.7087C4.62898 19.2656 6.05973 19.2656 8.92121 19.2656H11.3056C14.167 19.2656 15.5978 19.2656 16.6907 18.7087C17.6521 18.2189 18.4337 17.4373 18.9235 16.4759C19.4805 15.383 19.4804 13.9522 19.4804 11.0907V8.70639C19.4804 5.84491 19.4805 4.41417 18.9235 3.32123C18.4337 2.35984 17.6521 1.57822 16.6907 1.08838C15.5978 0.531494 14.167 0.531494 11.3056 0.531494H8.92121C6.05973 0.531494 4.62898 0.531494 3.53604 1.08838C2.57466 1.57822 1.79304 2.35984 1.30319 3.32123ZM11.3056 2.2346H8.92121C7.46236 2.2346 6.47065 2.23593 5.70411 2.29855C4.95744 2.35955 4.5756 2.47013 4.30923 2.60585C3.66831 2.93242 3.14723 3.4535 2.82066 4.09442C2.68494 4.36079 2.57437 4.74262 2.51336 5.4893C2.45074 6.25584 2.44941 7.24755 2.44941 8.70639V11.0907C2.44941 12.5496 2.45074 13.5412 2.51336 14.3078C2.57437 15.0545 2.68494 15.4364 2.82066 15.7027C3.14723 16.3436 3.66831 16.8647 4.30923 17.1913C4.5756 17.327 4.95744 17.4376 5.70411 17.4986C6.47065 17.5612 7.46236 17.5625 8.92121 17.5625H11.3056C12.7644 17.5625 13.7561 17.5612 14.5226 17.4986C15.2694 17.4376 15.6512 17.327 15.9176 17.1913C16.5584 16.8647 17.0795 16.3436 17.4061 15.7027C17.5418 15.4364 17.6524 15.0545 17.7134 14.3078C17.776 13.5412 17.7773 12.5496 17.7773 11.0907V8.70639C17.7773 7.24755 17.776 6.25584 17.7134 5.4893C17.6524 4.74262 17.5418 4.36079 17.4061 4.09442C17.0795 3.4535 16.5584 2.93242 15.9176 2.60585C15.6512 2.47013 15.2694 2.35955 14.5226 2.29855C13.7561 2.23593 12.7644 2.2346 11.3056 2.2346Z" fill="#D8D8D8"/>
</svg>
