<svg width="22" height="22" viewBox="0 0 22 22" fill="none" xmlns="http://www.w3.org/2000/svg">
<path d="M10.857 0.622559C5.06878 0.622559 0.380615 5.31072 0.380615 11.0989C0.380615 16.8871 5.06878 21.5752 10.857 21.5752C16.6451 21.5752 21.3333 16.8871 21.3333 11.0989C21.3333 5.31072 16.6451 0.622559 10.857 0.622559ZM10.857 3.24164C11.7212 3.24164 12.5332 3.47736 13.3189 3.73927C12.7689 4.26309 12.1403 4.73452 12.2451 5.20596C12.3498 5.67739 14.0522 5.54644 14.0522 6.5155C14.0522 7.22265 12.9522 7.43218 13.7118 8.24409C14.6284 9.16077 12.0355 10.8108 11.9832 12.0156C11.9046 14.1894 14.1832 14.5561 15.9904 14.5561C17.0904 14.5561 17.3785 15.0799 17.2999 15.7085C15.8856 17.7252 13.476 18.9823 10.8308 18.9823C9.83551 18.9823 8.91883 18.7466 8.05453 18.4061C8.63073 17.2537 7.32119 14.9751 6.09022 14.2418C5.48783 13.6394 4.20448 13.8751 3.47113 13.587C3.23542 12.8799 2.9997 12.1727 2.97351 11.387C3.05208 11.256 3.18304 11.1513 3.39256 11.1513C3.89019 11.1513 4.57115 12.1465 4.93782 12.0418C5.40926 11.937 2.9997 8.61076 4.12591 7.95599C4.64972 7.6417 5.69736 8.97744 5.35687 7.53694C5.04258 6.20121 6.29975 6.8036 7.08547 6.46312C7.76643 6.17502 8.26406 5.38929 7.42595 4.91786C7.26881 4.83928 7.08547 4.65595 6.84975 4.42023C8.02834 3.71308 9.39026 3.26783 10.857 3.26783V3.24164ZM16.907 6.09644C17.3785 6.67264 17.7451 7.30122 18.0594 7.98218V8.06076C17.9547 8.24409 17.7713 8.34886 17.4832 8.63696C16.7499 9.3703 16.6451 8.08695 16.3308 7.82504C15.9904 7.51075 14.7594 7.87742 14.6022 7.48456C14.4189 7.01312 15.9118 6.38454 16.907 6.09644Z" fill="#E0D9D9"/>
</svg>
