<svg width="20" height="20" viewBox="0 0 20 20" fill="none" xmlns="http://www.w3.org/2000/svg">
<path fill-rule="evenodd" clip-rule="evenodd" d="M16.9395 0.897583C18.3429 0.897583 19.4805 2.03523 19.4805 3.43858V16.9905C19.4805 18.3939 18.3429 19.5315 16.9395 19.5315H3.38749C1.98414 19.5315 0.846497 18.3939 0.846497 16.9905V3.43858C0.846497 2.03523 1.98414 0.897583 3.38749 0.897583H16.9395ZM16.9395 2.59158C17.4073 2.59158 17.7865 2.9708 17.7865 3.43858V16.9905C17.7865 17.4583 17.4073 17.8375 16.9395 17.8375H12.7045V11.9085H14.463C14.8276 11.9085 15.1512 11.6752 15.2666 11.3293L15.6418 10.2036C15.7789 9.79225 15.4727 9.36748 15.0391 9.36748H12.7045V7.6735C12.7045 7.25 13.128 6.8265 13.5515 6.8265H15.2455C15.7133 6.8265 16.0925 6.44728 16.0925 5.9795V5.39847C16.0925 5.12487 15.9177 4.87958 15.6531 4.80976C14.5429 4.51676 13.5515 4.51676 13.5515 4.51676C11.434 4.51676 10.1635 5.9795 10.1635 7.25V9.36748H8.46948C8.0017 9.36748 7.62248 9.74668 7.62248 10.2145V11.0615C7.62248 11.5293 8.00169 11.9085 8.46948 11.9085H10.1635V17.8375H3.38749C2.91971 17.8375 2.54049 17.4583 2.54049 16.9905V3.43858C2.54049 2.9708 2.91971 2.59158 3.38749 2.59158H16.9395Z" fill="#D8D8D8"/>
</svg>
