<svg width="167" height="29" viewBox="0 0 167 29" fill="none" xmlns="http://www.w3.org/2000/svg">
<path d="M29.7813 3.28271H29.8429C33.6417 3.28271 36.5945 4.96224 38.7068 8.3213C39.0514 9.06558 39.2251 9.47282 39.2251 9.54304V9.60482C36.9307 10.7254 35.6952 11.2844 35.5243 11.2844C34.5494 8.72855 32.7733 7.45064 30.1931 7.45064C26.5063 7.45064 24.3436 9.21162 23.7049 12.7336C23.6628 13.0987 23.6432 13.4526 23.6432 13.7868V14.826C23.6432 17.4323 24.8423 19.3309 27.2375 20.5218C27.7866 20.7156 28.6551 20.8869 29.8429 21.0414L29.9045 21.1621V24.9958C29.9045 25.1082 29.8289 25.1643 29.6748 25.1643C25.2261 25.1643 22.038 22.9596 20.1105 18.553C19.6119 16.9549 19.3625 15.5197 19.3625 14.2474C19.3625 9.67785 21.3516 6.31317 25.3325 4.15337C26.7753 3.572 28.2573 3.28271 29.7813 3.28271Z" fill="#E0D9D9"/>
<path d="M76.4344 4.16742C80.4153 6.39743 82.4044 9.73964 82.4044 14.1997C82.4044 15.809 82.0682 17.4464 81.3986 19.1175C79.3059 23.1478 76.2495 25.1643 72.2294 25.1643H67.4472C67.324 25.1026 67.2651 25.0408 67.2651 24.9818V21.0722C67.3268 20.9515 67.3884 20.8897 67.4472 20.8897H72.1677C73.1623 20.8897 74.0111 20.7127 74.7115 20.3561C76.9247 19.0416 78.0312 17.1711 78.0312 14.7361V13.666C78.0312 13.329 77.9892 12.9133 77.908 12.4134C77.0031 9.13579 75.0701 7.49558 72.1061 7.49558H67.4444C67.3212 7.43379 67.2623 7.372 67.2623 7.31302V3.46527C67.324 3.3417 67.3856 3.28271 67.4444 3.28271H72.2266C73.5573 3.28271 74.958 3.57762 76.4316 4.16742H76.4344Z" fill="#E0D9D9"/>
<path d="M85.755 3.22119H100.298C100.373 3.22119 100.446 3.28298 100.522 3.40375V7.32733C100.522 7.37789 100.446 7.43968 100.298 7.50989H85.755C85.6794 7.50989 85.6065 7.4481 85.5309 7.32733V3.40375C85.5309 3.34196 85.6065 3.28298 85.755 3.22119ZM85.755 12.0177H100.298C100.373 12.0177 100.446 12.0794 100.522 12.2002V16.1238C100.522 16.1856 100.446 16.2446 100.298 16.3064H85.755C85.6794 16.3064 85.6065 16.2446 85.5309 16.1238V12.2002C85.5309 12.1497 85.6065 12.0879 85.755 12.0177ZM85.755 20.89H100.298C100.373 20.89 100.446 20.9461 100.522 21.0585V24.9821C100.522 25.0438 100.446 25.1056 100.298 25.1646H85.755C85.6794 25.1646 85.6065 25.1028 85.5309 24.9821V21.0585C85.5309 21.0079 85.6065 20.9517 85.755 20.89Z" fill="#E0D9D9"/>
<path d="M126.071 3.37294L116.963 16.5817V24.9962C116.902 25.117 116.846 25.1787 116.795 25.1787H112.834C112.711 25.117 112.652 25.058 112.652 24.9962V15.4077C112.826 15.0005 115.109 11.6807 119.507 5.45129C120.381 4.02734 120.956 3.31396 121.227 3.31396H125.948L126.071 3.37575V3.37294Z" fill="#E0D9D9"/>
<path d="M103.609 3.25195H108.329C109.657 4.84442 110.985 6.43688 112.316 8.03215C111.439 9.12188 110.562 10.2116 109.685 11.3013C107.66 8.61914 105.634 5.93695 103.609 3.25195Z" fill="#E0D9D9"/>
<path d="M139.731 3.25195H143.751C143.813 3.25195 143.875 3.31374 143.933 3.43451V24.996C143.933 25.0577 143.872 25.1167 143.751 25.1785H140.02C139.726 25.1785 139.014 24.3079 137.888 22.5665C132.212 14.8907 129.287 10.8492 129.114 10.4419V3.84737C129.125 3.76592 129.164 3.7266 129.237 3.7266C135.879 12.8067 139.294 17.4437 139.487 17.6375H139.549V3.43451C139.549 3.37272 139.611 3.31093 139.731 3.25195Z" fill="#E0D9D9"/>
<path d="M157.28 3.57752H157.339C161.09 3.57752 164.009 5.23738 166.096 8.55431C166.438 9.28735 166.609 9.69179 166.609 9.762V9.82098C164.342 10.9276 163.124 11.4809 162.953 11.4809C161.989 8.95594 160.235 7.69489 157.686 7.69489C154.044 7.69489 151.909 9.43621 151.276 12.9132C151.237 13.2755 151.217 13.6238 151.217 13.9552V14.9803C151.217 17.5558 152.4 19.4291 154.77 20.6059C155.31 20.7969 156.17 20.9682 157.341 21.1199L157.4 21.2407V25.0266C157.4 25.1362 157.325 25.1923 157.173 25.1923C152.781 25.1923 149.629 23.0157 147.724 18.6596C147.234 17.0812 146.987 15.6628 146.987 14.4046C146.987 9.88839 148.954 6.56584 152.884 4.43413C154.307 3.86118 155.773 3.57471 157.277 3.57471L157.28 3.57752Z" fill="#E0D9D9"/>
<path d="M158.123 21.4855C158.84 22.1202 158.745 23.2015 158.7 23.5077C158.58 24.3306 158.095 24.867 157.882 25.0749C156.986 25.6282 156.039 26.1814 155.039 26.7319C153.7 27.4678 152.4 28.1194 151.156 28.6979C151.287 27.4481 151.696 25.5467 153.019 23.752C153.557 23.0246 155.033 21.0193 156.882 21.0642C157.112 21.0698 157.678 21.0923 158.123 21.4855Z" fill="#E0D9D9"/>
<path d="M166.609 21.064H162.855V25.1813H166.609V21.064Z" fill="#E0D9D9"/>
<path d="M53.1316 3.20166C47.0692 3.20166 42.1526 8.15037 42.1526 14.2506C42.1526 20.3508 47.0692 25.2995 53.1316 25.2995C59.194 25.2995 64.1107 20.3508 64.1107 14.2506C64.1107 8.15037 59.1968 3.20166 53.1316 3.20166ZM53.0448 21.3395C49.1563 21.3395 46.0018 18.1658 46.0018 14.2506C46.0018 10.3354 49.1563 7.16175 53.0448 7.16175C56.9332 7.16175 60.0877 10.3354 60.0877 14.2506C60.0877 18.1658 56.9332 21.3395 53.0448 21.3395Z" fill="#E0D9D9"/>
<path d="M12.23 0.853516H16.1885C16.2865 0.853516 16.3341 0.906879 16.3341 1.0108C9.16514 15.9861 5.30469 24.0102 4.7556 25.0803L4.3886 25.1337H0.651419C0.407689 25.1337 0.284424 25.0972 0.284424 25.0269C7.51506 9.89433 11.3755 1.85337 11.863 0.906879L12.23 0.853516Z" fill="#E0D9D9"/>
</svg>
