<svg width="21" height="18" viewBox="0 0 21 18" fill="none" xmlns="http://www.w3.org/2000/svg">
<path fill-rule="evenodd" clip-rule="evenodd" d="M17.4918 1.63095C17.8155 1.55381 18.0413 1.47797 18.2262 1.39832C18.4854 1.28668 18.7003 1.15294 19.0398 0.927714C19.3251 0.738421 19.6907 0.721938 19.9917 0.884792C20.2927 1.04765 20.4805 1.36353 20.4805 1.70717C20.4805 2.71665 20.3553 3.54404 20.0657 4.27217C19.8219 4.88464 19.4795 5.38209 19.0699 5.83485C18.897 8.97568 17.9926 11.4422 16.61 13.3109C15.177 15.2477 13.2704 16.488 11.2606 17.1826C9.25664 17.8751 7.13929 18.0299 5.24241 17.7954C3.35797 17.5625 1.61605 16.9353 0.40191 15.9859C0.0694156 15.7259 -0.0474636 15.2736 0.117146 14.8837C0.281758 14.4939 0.686646 14.2643 1.10364 14.3242C2.29826 14.4958 3.44821 14.2227 4.3938 13.8324C4.20766 13.7306 4.03215 13.6204 3.86901 13.5068C3.00737 12.9071 2.31218 12.0931 1.99928 11.4639C1.86979 11.2036 1.86845 10.8974 1.99567 10.636C2.06129 10.501 2.15725 10.3861 2.27376 10.2984C1.01569 9.25455 0.507756 7.81083 0.507756 6.84364C0.507756 6.55605 0.639557 6.2845 0.865035 6.10753C0.959845 6.03311 1.06677 5.9789 1.17948 5.94625C1.08534 5.66912 1.01228 5.38913 0.956603 5.11806C0.709712 3.91626 0.731627 2.5598 0.999976 1.48067C1.0918 1.11138 1.39738 0.835089 1.77235 0.782286C2.14732 0.729493 2.51665 0.910763 2.70586 1.24048C3.70682 2.98471 5.55311 4.05086 7.27141 4.68242C8.07927 4.97934 8.82746 5.16855 9.38828 5.28488C9.50932 4.14496 9.82591 3.20491 10.3118 2.45826C10.9529 1.47319 11.8471 0.890367 12.8072 0.63049C14.4633 0.182309 16.3009 0.692912 17.4918 1.63095ZM9.09918 7.13183C8.46275 7.00334 7.58805 6.78751 6.63346 6.43666C5.37265 5.97327 3.90859 5.2507 2.68221 4.13144C2.70416 4.3374 2.73532 4.54162 2.77613 4.7403C2.98167 5.74082 3.36358 6.30116 3.71009 6.47533C4.1339 6.68837 4.3303 7.18791 4.1659 7.63469C3.94332 8.23958 3.35791 8.28917 2.826 8.15553C3.25381 8.8003 4.02275 9.4432 5.30529 9.65809C5.74764 9.73224 6.07418 10.1135 6.08141 10.5643C6.08865 11.015 5.77451 11.4066 5.33476 11.4951L4.52613 11.6577C4.64983 11.7657 4.78378 11.8717 4.92656 11.9711C5.57397 12.4217 6.22401 12.616 6.78519 12.475C7.2055 12.3694 7.64263 12.5698 7.83879 12.9582C8.03494 13.3465 7.93803 13.8197 7.60521 14.0984C7.00703 14.599 6.30844 15.0007 5.6083 15.334C5.27961 15.4905 4.91229 15.645 4.51336 15.7809C4.82018 15.8468 5.13944 15.9008 5.46915 15.9416C7.11395 16.1449 8.9447 16.0078 10.6566 15.4163C12.3626 14.8267 13.9395 13.7906 15.1193 12.1962C16.2973 10.6039 17.1195 8.40031 17.2297 5.40828C17.2384 5.17271 17.3354 4.94915 17.5012 4.78247C17.9188 4.36254 18.264 3.88121 18.4339 3.30829C18.1367 3.40143 17.8021 3.48204 17.4035 3.55864C17.1012 3.61675 16.7899 3.52053 16.5722 3.30172C15.862 2.58773 14.4574 2.1182 13.2902 2.43408C12.7409 2.58275 12.2416 2.90459 11.8666 3.48084C11.4837 4.06918 11.1908 4.98572 11.1908 6.37672C11.1908 6.641 11.0795 6.89289 10.8844 7.06997C10.4217 7.48975 9.64318 7.24164 9.09918 7.13183Z" fill="#D8D8D8"/>
</svg>
