<svg width="1354" height="224" viewBox="0 0 1354 224" fill="none" xmlns="http://www.w3.org/2000/svg">
<g opacity="0.5">
<path d="M230.732 25.927H231.212C260.823 25.927 283.839 39.0164 300.304 65.1951C302.99 70.9956 304.344 74.1694 304.344 74.7166V75.1982C286.459 83.9317 276.829 88.2875 275.497 88.2875C267.898 68.3689 254.054 58.4096 233.942 58.4096C205.205 58.4096 188.347 72.1338 183.368 99.582C183.04 102.428 182.887 105.185 182.887 107.79V115.889C182.887 136.202 192.234 150.998 210.904 160.279C215.184 161.789 221.953 163.125 231.212 164.328L231.693 165.27V195.147C231.693 196.023 231.103 196.461 229.902 196.461C195.225 196.461 170.375 179.278 155.351 144.935C151.464 132.481 149.521 121.295 149.521 111.38C149.521 75.7673 165.025 49.5448 196.055 32.7125C207.301 28.1815 218.853 25.927 230.732 25.927Z" fill="#9C9C9C"/>
<path d="M594.379 32.8219C625.41 50.2014 640.914 76.2488 640.914 111.008C640.914 123.55 638.293 136.311 633.074 149.335C616.762 180.745 592.938 196.461 561.602 196.461H524.327C523.366 195.979 522.908 195.498 522.908 195.038V164.569C523.388 163.628 523.868 163.146 524.327 163.146H561.122C568.874 163.146 575.491 161.767 580.95 158.988C598.201 148.744 606.826 134.166 606.826 115.189V106.849C606.826 104.222 606.499 100.983 605.866 97.0867C598.812 71.5428 583.745 58.7598 560.642 58.7598H524.305C523.344 58.2783 522.886 57.7967 522.886 57.3371V27.3498C523.366 26.3867 523.847 25.927 524.305 25.927H561.581C571.953 25.927 582.871 28.2253 594.358 32.8219H594.379Z" fill="#9C9C9C"/>
<path d="M667.032 25.4452H780.387C780.976 25.4452 781.544 25.9267 782.133 26.8679V57.4463C782.133 57.8403 781.544 58.3218 780.387 58.869H667.032C666.442 58.869 665.874 58.3875 665.285 57.4463V26.8679C665.285 26.3864 665.874 25.9267 667.032 25.4452ZM667.032 94.0002H780.387C780.976 94.0002 781.544 94.4817 782.133 95.4229V126.001C782.133 126.483 781.544 126.942 780.387 127.424H667.032C666.442 127.424 665.874 126.942 665.285 126.001V95.4229C665.285 95.0289 665.874 94.5474 667.032 94.0002ZM667.032 163.146H780.387C780.976 163.146 781.544 163.584 782.133 164.459V195.038C782.133 195.519 781.544 196.001 780.387 196.461H667.032C666.442 196.461 665.874 195.979 665.285 195.038V164.459C665.285 164.065 665.874 163.628 667.032 163.146Z" fill="#9C9C9C"/>
<path d="M981.285 26.6496L910.293 129.592V195.17C909.813 196.111 909.376 196.592 908.983 196.592H878.106C877.145 196.111 876.686 195.651 876.686 195.17V120.442C878.04 117.268 895.837 91.396 930.121 42.8471C936.934 31.7496 941.411 26.1899 943.529 26.1899H980.324L981.285 26.6715V26.6496Z" fill="#9C9C9C"/>
<path d="M806.196 25.7095H842.992C853.342 38.1203 863.693 50.5311 874.065 62.9638C867.23 71.4566 860.395 79.9493 853.561 88.4421C837.772 67.5385 821.984 46.6349 806.196 25.7095Z" fill="#9C9C9C"/>
<path d="M1087.76 25.7095H1119.1C1119.58 25.7095 1120.06 26.191 1120.52 27.1322V195.171C1120.52 195.652 1120.04 196.112 1119.1 196.594H1090.01C1087.72 196.594 1082.17 189.808 1073.39 176.237C1029.15 116.416 1006.35 84.9181 1005 81.7442V30.3498C1005.09 29.7151 1005.39 29.4086 1005.96 29.4086C1057.73 100.174 1084.35 136.312 1085.86 137.823H1086.34V27.1322C1086.34 26.6507 1086.82 26.1691 1087.76 25.7095Z" fill="#9C9C9C"/>
<path d="M1224.55 28.2256H1225C1254.24 28.2256 1277 41.1618 1293.27 67.0122C1295.93 72.7251 1297.26 75.877 1297.26 76.4242V76.8839C1279.6 85.508 1270.1 89.82 1268.76 89.82C1261.25 70.1422 1247.58 60.3143 1227.71 60.3143C1199.32 60.3143 1182.68 73.8852 1177.75 100.983C1177.44 103.807 1177.29 106.521 1177.29 109.104V117.093C1177.29 137.165 1186.51 151.765 1204.98 160.936C1209.19 162.424 1215.9 163.76 1225.03 164.942L1225.48 165.883V195.389C1225.48 196.242 1224.89 196.68 1223.72 196.68C1189.48 196.68 1164.91 179.716 1150.06 145.767C1146.24 133.466 1144.32 122.412 1144.32 112.606C1144.32 77.4092 1159.65 51.5151 1190.28 34.9016C1201.38 30.4364 1212.8 28.2037 1224.52 28.2037L1224.55 28.2256Z" fill="#9C9C9C"/>
<path d="M1297.26 0.47168H1319.27V3.40475H1309.88V28.2264H1306.61V3.40475H1297.26V0.47168Z" fill="#9C9C9C"/>
<path d="M1322.4 0.47168H1327.75L1337.81 25.2276L1347.82 0.47168H1353.19V28.2264H1349.96V3.07642L1339.8 28.2483H1335.81L1325.65 3.07642V28.2483H1322.42V0.47168H1322.4Z" fill="#9C9C9C"/>
<path d="M1231.12 167.788C1236.71 172.735 1235.97 181.162 1235.62 183.548C1234.68 189.961 1230.9 194.142 1229.24 195.762C1222.25 200.074 1214.87 204.386 1207.08 208.676C1196.64 214.411 1186.51 219.489 1176.81 223.998C1177.84 214.258 1181.03 199.439 1191.33 185.452C1195.53 179.783 1207.03 164.155 1221.45 164.505C1223.24 164.549 1227.65 164.724 1231.12 167.788Z" fill="#9C9C9C"/>
<path d="M1297.26 164.505H1268V196.594H1297.26V164.505Z" fill="#9C9C9C"/>
<path d="M412.741 25.2917C365.486 25.2917 327.162 63.8594 327.162 111.401C327.162 158.943 365.486 197.511 412.741 197.511C459.996 197.511 498.319 158.943 498.319 111.401C498.319 63.8594 460.017 25.2917 412.741 25.2917ZM412.064 166.648C381.754 166.648 357.166 141.914 357.166 111.401C357.166 80.8887 381.754 56.1546 412.064 56.1546C442.373 56.1546 466.961 80.8887 466.961 111.401C466.961 141.914 442.373 166.648 412.064 166.648Z" fill="#9C9C9C"/>
<path d="M93.9244 7.01554H124.78C125.544 7.01554 125.915 7.43142 125.915 8.2413C70.0349 124.951 39.9438 187.487 35.6638 195.826L32.8032 196.242H3.67288C1.77307 196.242 0.812256 195.958 0.812256 195.41C57.173 77.4748 87.2642 14.8079 91.0638 7.40954L93.9244 6.99365V7.01554Z" fill="#9C9C9C"/>
</g>
</svg>
