<svg width="1440" height="347" viewBox="0 0 1440 347" fill="none" xmlns="http://www.w3.org/2000/svg">
<g opacity="0.02">
<path d="M48.6486 30.8687H49.4138C96.5759 30.8687 133.234 51.7199 159.459 93.4224C163.737 102.663 165.893 107.718 165.893 108.59V109.357C137.408 123.27 122.07 130.209 119.948 130.209C107.845 98.4783 85.794 82.6133 53.7614 82.6133C7.99046 82.6133 -18.86 104.476 -26.7899 148.201C-27.3116 152.733 -27.555 157.127 -27.555 161.276V174.177C-27.555 206.535 -12.6691 230.106 17.0681 244.89C23.885 247.296 34.667 249.423 49.4138 251.341L50.179 252.84V300.436C50.179 301.83 49.2399 302.528 47.327 302.528C-7.90414 302.528 -47.4841 275.156 -71.413 220.448C-77.6039 200.608 -80.6993 182.79 -80.6993 166.995C-80.6993 110.264 -56.0053 68.4916 -6.58248 41.6778C11.3294 34.4601 29.7281 30.8687 48.6486 30.8687Z" fill="#E0D9D9"/>
<path d="M627.845 41.8522C677.267 69.5376 701.961 111.031 701.961 166.402C701.961 186.381 697.788 206.71 689.475 227.456C663.494 277.492 625.549 302.528 575.639 302.528H516.269C514.739 301.761 514.009 300.994 514.009 300.261V251.725C514.774 250.225 515.539 249.458 516.269 249.458H574.874C587.221 249.458 597.76 247.262 606.455 242.833C633.931 226.515 647.669 203.293 647.669 173.062V159.777C647.669 155.593 647.148 150.432 646.139 144.226C634.905 103.534 610.906 83.1712 574.109 83.1712H516.234C514.704 82.404 513.974 81.6369 513.974 80.9047V33.1351C514.739 31.6009 515.504 30.8687 516.234 30.8687H575.604C592.125 30.8687 609.515 34.5298 627.81 41.8522H627.845Z" fill="#E0D9D9"/>
<path d="M743.558 30.105H924.103C925.042 30.105 925.946 30.8721 926.885 32.3714V81.0825C926.885 81.7101 925.946 82.4772 924.103 83.3489H743.558C742.619 83.3489 741.715 82.5818 740.776 81.0825V32.3714C740.776 31.6043 741.715 30.8721 743.558 30.105ZM743.558 139.313H924.103C925.042 139.313 925.946 140.08 926.885 141.579V190.29C926.885 191.057 925.946 191.789 924.103 192.557H743.558C742.619 192.557 741.715 191.789 740.776 190.29V141.579C740.776 140.951 741.715 140.184 743.558 139.313ZM743.558 249.462H924.103C925.042 249.462 925.946 250.159 926.885 251.554V300.265C926.885 301.032 925.946 301.799 924.103 302.531H743.558C742.619 302.531 741.715 301.764 740.776 300.265V251.554C740.776 250.926 741.715 250.229 743.558 249.462Z" fill="#E0D9D9"/>
<path d="M1244.08 31.9891L1131.01 195.975V300.44C1130.25 301.94 1129.55 302.707 1128.92 302.707H1079.75C1078.21 301.94 1077.48 301.207 1077.48 300.44V181.4C1079.64 176.344 1107.99 135.13 1162.59 57.7916C1173.44 40.1134 1180.57 31.2568 1183.95 31.2568H1242.55L1244.08 32.0239V31.9891Z" fill="#E0D9D9"/>
<path d="M965.214 30.4868H1023.82C1040.3 50.2572 1056.79 70.0275 1073.31 89.8327C1062.43 103.362 1051.54 116.891 1040.65 130.419C1015.51 97.1202 990.36 63.8209 965.214 30.4868Z" fill="#E0D9D9"/>
<path d="M1413.67 30.4868H1463.58C1464.35 30.4868 1465.11 31.2539 1465.84 32.7533V300.437C1465.84 301.204 1465.08 301.937 1463.58 302.704H1417.25C1413.6 302.704 1404.77 291.895 1390.78 270.276C1320.32 174.981 1284.01 124.806 1281.85 119.75V37.8789C1281.99 36.8677 1282.48 36.3796 1283.38 36.3796C1365.85 149.109 1408.24 206.676 1410.64 209.082H1411.41V32.7533C1411.41 31.9862 1412.17 31.2191 1413.67 30.4868Z" fill="#E0D9D9"/>
<path d="M338.543 29.8628C263.278 29.8628 202.239 91.3008 202.239 167.035C202.239 242.769 263.278 304.207 338.543 304.207C413.807 304.207 474.847 242.769 474.847 167.035C474.847 91.3008 413.842 29.8628 338.543 29.8628ZM337.464 255.042C289.189 255.042 250.027 215.641 250.027 167.035C250.027 118.428 289.189 79.0271 337.464 79.0271C385.739 79.0271 424.902 118.428 424.902 167.035C424.902 215.641 385.739 255.042 337.464 255.042Z" fill="#E0D9D9"/>
</g>
</svg>
