<svg width="2065" height="346" viewBox="0 0 2065 346" fill="none" xmlns="http://www.w3.org/2000/svg">
<g opacity="0.02">
<path d="M366.202 30.1582H366.967C414.129 30.1582 450.787 51.0095 477.012 92.712C481.29 101.952 483.446 107.008 483.446 107.88V108.647C454.961 122.559 439.623 129.498 437.501 129.498C425.398 97.7679 403.347 81.9028 371.314 81.9028C325.544 81.9028 298.693 103.765 290.763 147.49C290.242 152.023 289.998 156.416 289.998 160.566V173.467C289.998 205.825 304.884 229.396 334.621 244.18C341.438 246.586 352.22 248.713 366.967 250.631L367.732 252.13V299.725C367.732 301.12 366.793 301.817 364.88 301.817C309.649 301.817 270.069 274.446 246.14 219.737C239.949 199.897 236.854 182.08 236.854 166.284C236.854 109.553 261.548 67.7811 310.971 40.9674C328.882 33.7496 347.281 30.1582 366.202 30.1582Z" fill="#E0D9D9"/>
<path d="M945.398 41.1417C994.82 68.8272 1019.51 110.321 1019.51 165.691C1019.51 185.671 1015.34 205.999 1007.03 226.746C981.047 276.782 943.102 301.817 893.192 301.817H833.822C832.292 301.05 831.562 300.283 831.562 299.551V251.014C832.327 249.515 833.092 248.748 833.822 248.748H892.427C904.774 248.748 915.313 246.551 924.008 242.123C951.484 225.804 965.222 202.582 965.222 172.351V159.066C965.222 154.882 964.701 149.722 963.692 143.515C952.458 102.824 928.46 82.4607 891.662 82.4607H833.788C832.257 81.6936 831.527 80.9265 831.527 80.1943V32.4246C832.292 30.8904 833.057 30.1582 833.788 30.1582H893.158C909.678 30.1582 927.068 33.8194 945.363 41.1417H945.398Z" fill="#E0D9D9"/>
<path d="M1061.11 29.3945H1241.66C1242.6 29.3945 1243.5 30.1616 1244.44 31.661V80.372C1244.44 80.9997 1243.5 81.7668 1241.66 82.6385H1061.11C1060.17 82.6385 1059.27 81.8714 1058.33 80.372V31.661C1058.33 30.8939 1059.27 30.1616 1061.11 29.3945ZM1061.11 138.602H1241.66C1242.6 138.602 1243.5 139.369 1244.44 140.869V189.58C1244.44 190.347 1243.5 191.079 1241.66 191.846H1061.11C1060.17 191.846 1059.27 191.079 1058.33 189.58V140.869C1058.33 140.241 1059.27 139.474 1061.11 138.602ZM1061.11 248.751H1241.66C1242.6 248.751 1243.5 249.449 1244.44 250.843V299.554C1244.44 300.321 1243.5 301.089 1241.66 301.821H1061.11C1060.17 301.821 1059.27 301.054 1058.33 299.554V250.843C1058.33 250.216 1059.27 249.518 1061.11 248.751Z" fill="#E0D9D9"/>
<path d="M1561.64 31.2786L1448.56 195.264V299.73C1447.8 301.229 1447.1 301.996 1446.48 301.996H1397.3C1395.77 301.229 1395.04 300.497 1395.04 299.73V180.689C1397.19 175.633 1425.54 134.419 1480.14 57.0812C1491 39.4029 1498.13 30.5464 1501.5 30.5464H1560.1L1561.64 31.3135V31.2786Z" fill="#E0D9D9"/>
<path d="M1282.77 29.7764H1341.37C1357.86 49.5467 1374.34 69.3171 1390.86 89.1223C1379.98 102.651 1369.09 116.18 1358.21 129.709C1333.06 96.4098 1307.91 63.1105 1282.77 29.7764Z" fill="#E0D9D9"/>
<path d="M1731.22 29.7764H1781.13C1781.9 29.7764 1782.66 30.5435 1783.39 32.0428V299.727C1783.39 300.494 1782.63 301.226 1781.13 301.993H1734.81C1731.15 301.993 1722.32 291.184 1708.34 269.566C1637.87 174.271 1601.56 124.095 1599.41 119.039V37.1685C1599.55 36.1573 1600.03 35.6691 1600.94 35.6691C1683.4 148.398 1725.8 205.966 1728.2 208.372H1728.96V32.0428C1728.96 31.2757 1729.73 30.5086 1731.22 29.7764Z" fill="#E0D9D9"/>
<path d="M1949.09 33.8186H1949.82C1996.39 33.8186 2032.63 54.4257 2058.54 95.6052C2062.78 104.706 2064.91 109.727 2064.91 110.599V111.331C2036.77 125.069 2021.64 131.938 2019.52 131.938C2007.55 100.591 1985.78 84.9355 1954.13 84.9355C1908.92 84.9355 1882.41 106.554 1874.55 149.721C1874.07 154.219 1873.82 158.543 1873.82 162.657V175.384C1873.82 207.358 1888.5 230.615 1917.92 245.225C1924.64 247.596 1935.31 249.723 1949.85 251.606L1950.58 253.105V300.108C1950.58 301.468 1949.64 302.165 1947.77 302.165C1893.23 302.165 1854.1 275.142 1830.45 221.061C1824.37 201.465 1821.3 183.857 1821.3 168.236C1821.3 112.168 1845.72 70.9185 1894.52 44.4534C1912.19 37.3403 1930.38 33.7837 1949.05 33.7837L1949.09 33.8186Z" fill="#E0D9D9"/>
<path d="M1959.56 256.145C1968.46 264.025 1967.28 277.449 1966.72 281.25C1965.23 291.466 1959.21 298.126 1956.57 300.706C1945.44 307.576 1933.68 314.445 1921.26 321.279C1904.64 330.414 1888.5 338.504 1873.06 345.687C1874.69 330.17 1879.77 306.564 1896.19 284.283C1902.87 275.253 1921.19 250.357 1944.15 250.914C1947 250.984 1954.03 251.263 1959.56 256.145Z" fill="#E0D9D9"/>
<path d="M2064.91 250.912H2018.3V302.029H2064.91V250.912Z" fill="#E0D9D9"/>
<path d="M656.096 29.1523C580.831 29.1523 519.792 90.5904 519.792 166.324C519.792 242.058 580.831 303.496 656.096 303.496C731.36 303.496 792.4 242.058 792.4 166.324C792.4 90.5904 731.395 29.1523 656.096 29.1523ZM655.017 254.332C606.742 254.332 567.58 214.931 567.58 166.324C567.58 117.718 606.742 78.3167 655.017 78.3167C703.293 78.3167 742.455 117.718 742.455 166.324C742.455 214.931 703.293 254.332 655.017 254.332Z" fill="#E0D9D9"/>
<path d="M148.303 0H197.448C198.665 0 199.256 0.662498 199.256 1.95263C110.254 187.871 62.3263 287.489 55.5094 300.774L50.9532 301.437H4.55622C1.53033 301.437 0 300.983 0 300.112C89.768 112.241 137.695 12.4131 143.747 0.662498L148.303 0Z" fill="#E0D9D9"/>
</g>
</svg>
