<svg width="1674" height="44" viewBox="0 0 1674 44" fill="none" xmlns="http://www.w3.org/2000/svg">
<path d="M0 43.152V10.032H26.3455V12.144H2.89378V24.528H24.5369V26.64H2.89378V41.04H26.3455V43.152H0Z" fill="#E0D9D9"/>
<path d="M31.2306 42.528L45.3981 26.112L32.0143 10.656L32.3761 10.032H34.8478L47.0861 24.432L59.3244 10.032H61.7962L62.1579 10.656L48.7742 26.112L62.9416 42.528L62.5799 43.152H60.1081L47.0861 27.744L34.0641 43.152H31.5923L31.2306 42.528Z" fill="#E0D9D9"/>
<path d="M70.5312 43.152V10.032H96.8767V12.144H73.425V24.528H95.0681V26.64H73.425V41.04H96.8767V43.152H70.5312Z" fill="#E0D9D9"/>
<path d="M105.62 43.152V10.032H108.514V41.04H130.157V43.152H105.62Z" fill="#E0D9D9"/>
<path d="M137.353 43.152V10.032H163.699V12.144H140.247V24.528H161.89V26.64H140.247V41.04H163.699V43.152H137.353Z" fill="#E0D9D9"/>
<path d="M172.442 43.152V10.032H175.758L200.838 39.984V10.032H203.731V43.152H200.416L175.336 13.2V43.152H172.442Z" fill="#E0D9D9"/>
<path d="M214.582 36.24V16.944C214.582 12.336 217.476 10.032 223.263 10.032H240.807L242.736 11.232V12.144H222.962C219.305 12.144 217.476 13.584 217.476 16.464V36.72C217.476 39.6 219.305 41.04 222.962 41.04H242.736V41.952L240.807 43.152H223.263C217.476 43.152 214.582 40.848 214.582 36.24Z" fill="#E0D9D9"/>
<path d="M251.451 43.152V10.032H254.345V43.152H251.451Z" fill="#E0D9D9"/>
<path d="M261.355 42.528L275.764 10.032H281.13L295.478 42.528L294.996 43.152H292.644L288.665 33.84H268.168L264.189 43.152H261.898L261.355 42.528ZM269.193 31.728H287.701L279.321 12.144H277.573L269.193 31.728Z" fill="#E0D9D9"/>
<path d="M369.232 36.24V16.944C369.232 12.336 372.126 10.032 377.913 10.032H395.457L397.386 11.232V12.144H377.612C373.954 12.144 372.126 13.584 372.126 16.464V36.72C372.126 39.6 373.954 41.04 377.612 41.04H397.386V41.952L395.457 43.152H377.913C372.126 43.152 369.232 40.848 369.232 36.24Z" fill="#E0D9D9" fill-opacity="0.74"/>
<path d="M405.498 36.24V16.944C405.498 12.336 408.392 10.032 414.18 10.032H428.468C434.255 10.032 437.149 12.336 437.149 16.944V36.24C437.149 40.848 434.255 43.152 428.468 43.152H414.18C408.392 43.152 405.498 40.848 405.498 36.24ZM408.392 36.72C408.392 39.6 410.221 41.04 413.878 41.04H428.829C432.447 41.04 434.255 39.6 434.255 36.72V16.464C434.255 13.584 432.447 12.144 428.829 12.144H413.878C410.221 12.144 408.392 13.584 408.392 16.464V36.72Z" fill="#E0D9D9" fill-opacity="0.74"/>
<path d="M448.02 43.152V10.032H450.913V41.04H472.556V43.152H448.02Z" fill="#E0D9D9" fill-opacity="0.74"/>
<path d="M475.291 42.528L489.7 10.032H495.066L509.414 42.528L508.932 43.152H506.58L502.602 33.84H482.104L478.125 43.152H475.834L475.291 42.528ZM483.129 31.728H501.637L493.257 12.144H491.509L483.129 31.728Z" fill="#E0D9D9" fill-opacity="0.74"/>
<path d="M516.431 43.152V10.032H535.181C540.968 10.032 543.862 12.336 543.862 16.944V20.496C543.862 21.584 543.46 22.512 542.656 23.28L540.546 25.296L543.078 26.976C544.404 27.84 545.068 29.12 545.068 30.816V36.24C545.068 40.848 542.174 43.152 536.386 43.152H516.431ZM519.325 41.04H536.748C540.365 41.04 542.174 39.6 542.174 36.72V30.96C542.174 28.08 540.365 26.64 536.748 26.64H519.325V41.04ZM519.325 24.528H535.542C539.159 24.528 540.968 23.072 540.968 20.16V16.464C540.968 13.584 539.159 12.144 535.542 12.144H519.325V24.528Z" fill="#E0D9D9" fill-opacity="0.74"/>
<path d="M554.332 36.24V16.944C554.332 12.336 557.226 10.032 563.013 10.032H577.301C583.089 10.032 585.983 12.336 585.983 16.944V36.24C585.983 40.848 583.089 43.152 577.301 43.152H563.013C557.226 43.152 554.332 40.848 554.332 36.24ZM557.226 36.72C557.226 39.6 559.055 41.04 562.712 41.04H577.663C581.28 41.04 583.089 39.6 583.089 36.72V16.464C583.089 13.584 581.28 12.144 577.663 12.144H562.712C559.055 12.144 557.226 13.584 557.226 16.464V36.72Z" fill="#E0D9D9" fill-opacity="0.74"/>
<path d="M596.853 43.152V10.032H616.205C621.993 10.032 624.887 12.336 624.887 16.944V22.128C624.887 26.384 622.435 28.672 617.532 28.992L626.093 42.48L625.671 43.152H623.319L614.337 29.04H599.747V43.152H596.853ZM599.747 26.928H616.567C620.184 26.928 621.993 25.472 621.993 22.56V16.464C621.993 13.584 620.184 12.144 616.567 12.144H599.747V26.928Z" fill="#E0D9D9" fill-opacity="0.74"/>
<path d="M630.66 42.528L645.069 10.032H650.434L664.783 42.528L664.3 43.152H661.949L657.97 33.84H637.473L633.494 43.152H631.203L630.66 42.528ZM638.498 31.728H657.006L648.626 12.144H646.877L638.498 31.728Z" fill="#E0D9D9" fill-opacity="0.74"/>
<path d="M671.197 36.24V16.944C671.197 12.336 674.091 10.032 679.879 10.032H697.422L699.351 11.232V12.144H679.577C675.92 12.144 674.091 13.584 674.091 16.464V36.72C674.091 39.6 675.92 41.04 679.577 41.04H699.351V41.952L697.422 43.152H679.879C674.091 43.152 671.197 40.848 671.197 36.24Z" fill="#E0D9D9" fill-opacity="0.74"/>
<path d="M708.067 43.152V10.032H710.96V43.152H708.067Z" fill="#E0D9D9" fill-opacity="0.74"/>
<path d="M721.829 36.24V16.944C721.829 12.336 724.723 10.032 730.51 10.032H744.798C750.586 10.032 753.48 12.336 753.48 16.944V36.24C753.48 40.848 750.586 43.152 744.798 43.152H730.51C724.723 43.152 721.829 40.848 721.829 36.24ZM724.723 36.72C724.723 39.6 726.551 41.04 730.209 41.04H745.16C748.777 41.04 750.586 39.6 750.586 36.72V16.464C750.586 13.584 748.777 12.144 745.16 12.144H730.209C726.551 12.144 724.723 13.584 724.723 16.464V36.72ZM734.791 6.576L742.266 0L744.256 1.584L736.479 7.872L734.791 6.576Z" fill="#E0D9D9" fill-opacity="0.74"/>
<path d="M764.35 43.152V10.032H767.666L792.745 39.984V10.032H795.639V43.152H792.323L767.244 13.2V43.152H764.35Z" fill="#E0D9D9" fill-opacity="0.74"/>
<path d="M879.222 43.152V10.032H882.116V43.152H879.222Z" fill="#E0D9D9" fill-opacity="0.56"/>
<path d="M893.588 43.152V10.032H896.904L921.983 39.984V10.032H924.877V43.152H921.561L896.482 13.2V43.152H893.588Z" fill="#E0D9D9" fill-opacity="0.56"/>
<path d="M936.33 43.152V10.032H939.646L964.726 39.984V10.032H967.619V43.152H964.304L939.224 13.2V43.152H936.33Z" fill="#E0D9D9" fill-opacity="0.56"/>
<path d="M978.47 36.24V16.944C978.47 12.336 981.364 10.032 987.151 10.032H1001.44C1007.23 10.032 1010.12 12.336 1010.12 16.944V36.24C1010.12 40.848 1007.23 43.152 1001.44 43.152H987.151C981.364 43.152 978.47 40.848 978.47 36.24ZM981.364 36.72C981.364 39.6 983.193 41.04 986.85 41.04H1001.8C1005.42 41.04 1007.23 39.6 1007.23 36.72V16.464C1007.23 13.584 1005.42 12.144 1001.8 12.144H986.85C983.193 12.144 981.364 13.584 981.364 16.464V36.72Z" fill="#E0D9D9" fill-opacity="0.56"/>
<path d="M1016.53 10.656L1017.07 10.032H1019.36L1032.45 41.04H1034.19L1047.28 10.032H1049.57L1050.05 10.656L1036.12 43.152H1030.46L1016.53 10.656Z" fill="#E0D9D9" fill-opacity="0.56"/>
<path d="M1050.15 42.528L1064.56 10.032H1069.92L1084.27 42.528L1083.79 43.152H1081.44L1077.46 33.84H1056.96L1052.98 43.152H1050.69L1050.15 42.528ZM1057.98 31.728H1076.49L1068.11 12.144H1066.36L1057.98 31.728Z" fill="#E0D9D9" fill-opacity="0.56"/>
<path d="M1090.68 36.24V16.944C1090.68 12.336 1093.58 10.032 1099.37 10.032H1116.91L1118.84 11.232V12.144H1099.06C1095.41 12.144 1093.58 13.584 1093.58 16.464V36.72C1093.58 39.6 1095.41 41.04 1099.06 41.04H1118.84V41.952L1116.91 43.152H1099.37C1093.58 43.152 1090.68 40.848 1090.68 36.24Z" fill="#E0D9D9" fill-opacity="0.56"/>
<path d="M1127.55 43.152V10.032H1130.45V43.152H1127.55Z" fill="#E0D9D9" fill-opacity="0.56"/>
<path d="M1141.32 36.24V16.944C1141.32 12.336 1144.21 10.032 1150 10.032H1164.29C1170.07 10.032 1172.97 12.336 1172.97 16.944V36.24C1172.97 40.848 1170.07 43.152 1164.29 43.152H1150C1144.21 43.152 1141.32 40.848 1141.32 36.24ZM1144.21 36.72C1144.21 39.6 1146.04 41.04 1149.7 41.04H1164.65C1168.26 41.04 1170.07 39.6 1170.07 36.72V16.464C1170.07 13.584 1168.26 12.144 1164.65 12.144H1149.7C1146.04 12.144 1144.21 13.584 1144.21 16.464V36.72ZM1154.28 6.576L1161.75 0L1163.74 1.584L1155.97 7.872L1154.28 6.576Z" fill="#E0D9D9" fill-opacity="0.56"/>
<path d="M1183.84 43.152V10.032H1187.15L1212.23 39.984V10.032H1215.13V43.152H1211.81L1186.73 13.2V43.152H1183.84Z" fill="#E0D9D9" fill-opacity="0.56"/>
<path d="M1295.4 36.24V16.944C1295.4 12.336 1298.29 10.032 1304.08 10.032H1321.62L1323.55 11.232V12.144H1303.78C1300.12 12.144 1298.29 13.584 1298.29 16.464V36.72C1298.29 39.6 1300.12 41.04 1303.78 41.04H1323.55V41.952L1321.62 43.152H1304.08C1298.29 43.152 1295.4 40.848 1295.4 36.24Z" fill="#E0D9D9" fill-opacity="0.31"/>
<path d="M1331.67 36.24V16.944C1331.67 12.336 1334.56 10.032 1340.35 10.032H1354.63C1360.42 10.032 1363.32 12.336 1363.32 16.944V36.24C1363.32 40.848 1360.42 43.152 1354.63 43.152H1340.35C1334.56 43.152 1331.67 40.848 1331.67 36.24ZM1334.56 36.72C1334.56 39.6 1336.39 41.04 1340.05 41.04H1355C1358.61 41.04 1360.42 39.6 1360.42 36.72V16.464C1360.42 13.584 1358.61 12.144 1355 12.144H1340.05C1336.39 12.144 1334.56 13.584 1334.56 16.464V36.72Z" fill="#E0D9D9" fill-opacity="0.31"/>
<path d="M1374.19 43.152V10.032H1378.65L1393.9 35.76L1409.09 10.032H1413.55V43.152H1410.66V12.384L1395.53 38.064H1392.21L1377.08 12.384V43.152H1374.19Z" fill="#E0D9D9" fill-opacity="0.31"/>
<path d="M1424.99 43.152V10.032H1444.35C1450.13 10.032 1453.03 12.336 1453.03 16.944V23.088C1453.03 27.696 1450.13 30 1444.35 30H1427.89V43.152H1424.99ZM1427.89 27.888H1444.71C1448.33 27.888 1450.13 26.432 1450.13 23.52V16.464C1450.13 13.584 1448.33 12.144 1444.71 12.144H1427.89V27.888Z" fill="#E0D9D9" fill-opacity="0.31"/>
<path d="M1462.67 43.152V10.032H1482.03C1487.81 10.032 1490.71 12.336 1490.71 16.944V22.128C1490.71 26.384 1488.26 28.672 1483.35 28.992L1491.91 42.48L1491.49 43.152H1489.14L1480.16 29.04H1465.57V43.152H1462.67ZM1465.57 26.928H1482.39C1486.01 26.928 1487.81 25.472 1487.81 22.56V16.464C1487.81 13.584 1486.01 12.144 1482.39 12.144H1465.57V26.928Z" fill="#E0D9D9" fill-opacity="0.31"/>
<path d="M1500.34 36.24V16.944C1500.34 12.336 1503.23 10.032 1509.02 10.032H1523.31C1529.1 10.032 1531.99 12.336 1531.99 16.944V36.24C1531.99 40.848 1529.1 43.152 1523.31 43.152H1509.02C1503.23 43.152 1500.34 40.848 1500.34 36.24ZM1503.23 36.72C1503.23 39.6 1505.06 41.04 1508.72 41.04H1523.67C1527.29 41.04 1529.1 39.6 1529.1 36.72V16.464C1529.1 13.584 1527.29 12.144 1523.67 12.144H1508.72C1505.06 12.144 1503.23 13.584 1503.23 16.464V36.72Z" fill="#E0D9D9" fill-opacity="0.31"/>
<path d="M1542.86 43.152V10.032H1547.32L1562.57 35.76L1577.77 10.032H1582.23V43.152H1579.33V12.384L1564.2 38.064H1560.89L1545.75 12.384V43.152H1542.86Z" fill="#E0D9D9" fill-opacity="0.31"/>
<path d="M1593.67 43.152V10.032H1596.56V43.152H1593.67Z" fill="#E0D9D9" fill-opacity="0.31"/>
<path d="M1606.23 41.952V41.04H1624.73C1628.35 41.04 1630.16 39.6 1630.16 36.72V32.544C1630.16 30.176 1628.83 28.784 1626.18 28.368L1612.5 26.16C1608.32 25.488 1606.23 23.248 1606.23 19.44V16.944C1606.23 12.336 1609.12 10.032 1614.91 10.032H1629.98L1631.85 11.232V12.144H1614.61C1610.95 12.144 1609.12 13.584 1609.12 16.464V19.824C1609.12 22.224 1610.45 23.632 1613.1 24.048L1626.78 26.208C1630.96 26.88 1633.05 29.12 1633.05 32.928V36.24C1633.05 40.848 1630.16 43.152 1624.37 43.152H1608.15L1606.23 41.952Z" fill="#E0D9D9" fill-opacity="0.31"/>
<path d="M1642.11 36.24V16.944C1642.11 12.336 1645 10.032 1650.79 10.032H1665.08C1670.87 10.032 1673.76 12.336 1673.76 16.944V36.24C1673.76 40.848 1670.87 43.152 1665.08 43.152H1650.79C1645 43.152 1642.11 40.848 1642.11 36.24ZM1645 36.72C1645 39.6 1646.83 41.04 1650.49 41.04H1665.44C1669.06 41.04 1670.87 39.6 1670.87 36.72V16.464C1670.87 13.584 1669.06 12.144 1665.44 12.144H1650.49C1646.83 12.144 1645 13.584 1645 16.464V36.72Z" fill="#E0D9D9" fill-opacity="0.31"/>
</svg>
