<svg width="1440" height="44" viewBox="0 0 1440 44" fill="none" xmlns="http://www.w3.org/2000/svg">
<path d="M-84.1776 43.3502V10.2302H-57.8321V12.3422H-81.2838V24.7262H-59.6408V26.8382H-81.2838V41.2382H-57.8321V43.3502H-84.1776Z" fill="#E0D9D9"/>
<path d="M-52.947 42.7262L-38.7795 26.3102L-52.1633 10.8542L-51.8016 10.2302H-49.3298L-37.0915 24.6302L-24.8532 10.2302H-22.3814L-22.0197 10.8542L-35.4035 26.3102L-21.236 42.7262L-21.5977 43.3502H-24.0695L-37.0915 27.9422L-50.1135 43.3502H-52.5853L-52.947 42.7262Z" fill="#E0D9D9"/>
<path d="M-13.6464 43.3502V10.2302H12.6991V12.3422H-10.7526V24.7262H10.8904V26.8382H-10.7526V41.2382H12.6991V43.3502H-13.6464Z" fill="#E0D9D9"/>
<path d="M21.4426 43.3502V10.2302H24.3363V41.2382H45.9794V43.3502H21.4426Z" fill="#E0D9D9"/>
<path d="M53.1757 43.3502V10.2302H79.5212V12.3422H56.0695V24.7262H77.7126V26.8382H56.0695V41.2382H79.5212V43.3502H53.1757Z" fill="#E0D9D9"/>
<path d="M88.2647 43.3502V10.2302H91.5805L116.66 40.1822V10.2302H119.554V43.3502H116.238L91.1585 13.3982V43.3502H88.2647Z" fill="#E0D9D9"/>
<path d="M130.404 36.4382V17.1422C130.404 12.5342 133.298 10.2302 139.086 10.2302H156.629L158.559 11.4302V12.3422H138.784C135.127 12.3422 133.298 13.7822 133.298 16.6622V36.9182C133.298 39.7982 135.127 41.2382 138.784 41.2382H158.559V42.1502L156.629 43.3502H139.086C133.298 43.3502 130.404 41.0462 130.404 36.4382Z" fill="#E0D9D9"/>
<path d="M167.274 43.3502V10.2302H170.168V43.3502H167.274Z" fill="#E0D9D9"/>
<path d="M177.178 42.7262L191.586 10.2302H196.952L211.3 42.7262L210.818 43.3502H208.467L204.488 34.0382H183.99L180.011 43.3502H177.72L177.178 42.7262ZM185.015 31.9262H203.523L195.143 12.3422H193.395L185.015 31.9262Z" fill="#E0D9D9"/>
<path d="M285.054 36.4382V17.1422C285.054 12.5342 287.948 10.2302 293.736 10.2302H311.279L313.208 11.4302V12.3422H293.434C289.777 12.3422 287.948 13.7822 287.948 16.6622V36.9182C287.948 39.7982 289.777 41.2382 293.434 41.2382H313.208V42.1502L311.279 43.3502H293.736C287.948 43.3502 285.054 41.0462 285.054 36.4382Z" fill="#E0D9D9" fill-opacity="0.74"/>
<path d="M321.321 36.4382V17.1422C321.321 12.5342 324.214 10.2302 330.002 10.2302H344.29C350.078 10.2302 352.971 12.5342 352.971 17.1422V36.4382C352.971 41.0462 350.078 43.3502 344.29 43.3502H330.002C324.214 43.3502 321.321 41.0462 321.321 36.4382ZM324.214 36.9182C324.214 39.7982 326.043 41.2382 329.701 41.2382H344.652C348.269 41.2382 350.078 39.7982 350.078 36.9182V16.6622C350.078 13.7822 348.269 12.3422 344.652 12.3422H329.701C326.043 12.3422 324.214 13.7822 324.214 16.6622V36.9182Z" fill="#E0D9D9" fill-opacity="0.74"/>
<path d="M363.842 43.3502V10.2302H366.736V41.2382H388.379V43.3502H363.842Z" fill="#E0D9D9" fill-opacity="0.74"/>
<path d="M391.114 42.7262L405.522 10.2302H410.888L425.236 42.7262L424.754 43.3502H422.403L418.424 34.0382H397.926L393.947 43.3502H391.656L391.114 42.7262ZM398.951 31.9262H417.459L409.079 12.3422H407.331L398.951 31.9262Z" fill="#E0D9D9" fill-opacity="0.74"/>
<path d="M432.254 43.3502V10.2302H451.003C456.791 10.2302 459.684 12.5342 459.684 17.1422V20.6942C459.684 21.7822 459.282 22.7102 458.479 23.4782L456.368 25.4942L458.901 27.1742C460.227 28.0382 460.89 29.3182 460.89 31.0142V36.4382C460.89 41.0462 457.996 43.3502 452.209 43.3502H432.254ZM435.147 41.2382H452.57C456.188 41.2382 457.996 39.7982 457.996 36.9182V31.1582C457.996 28.2782 456.188 26.8382 452.57 26.8382H435.147V41.2382ZM435.147 24.7262H451.365C454.982 24.7262 456.791 23.2702 456.791 20.3582V16.6622C456.791 13.7822 454.982 12.3422 451.365 12.3422H435.147V24.7262Z" fill="#E0D9D9" fill-opacity="0.74"/>
<path d="M470.154 36.4382V17.1422C470.154 12.5342 473.048 10.2302 478.836 10.2302H493.124C498.911 10.2302 501.805 12.5342 501.805 17.1422V36.4382C501.805 41.0462 498.911 43.3502 493.124 43.3502H478.836C473.048 43.3502 470.154 41.0462 470.154 36.4382ZM473.048 36.9182C473.048 39.7982 474.877 41.2382 478.534 41.2382H493.486C497.103 41.2382 498.911 39.7982 498.911 36.9182V16.6622C498.911 13.7822 497.103 12.3422 493.486 12.3422H478.534C474.877 12.3422 473.048 13.7822 473.048 16.6622V36.9182Z" fill="#E0D9D9" fill-opacity="0.74"/>
<path d="M512.676 43.3502V10.2302H532.028C537.815 10.2302 540.709 12.5342 540.709 17.1422V22.3262C540.709 26.5822 538.258 28.8702 533.354 29.1902L541.915 42.6782L541.493 43.3502H539.142L530.159 29.2382H515.569V43.3502H512.676ZM515.569 27.1262H532.39C536.007 27.1262 537.815 25.6702 537.815 22.7582V16.6622C537.815 13.7822 536.007 12.3422 532.39 12.3422H515.569V27.1262Z" fill="#E0D9D9" fill-opacity="0.74"/>
<path d="M546.483 42.7262L560.891 10.2302H566.257L580.605 42.7262L580.123 43.3502H577.772L573.793 34.0382H553.295L549.316 43.3502H547.025L546.483 42.7262ZM554.32 31.9262H572.828L564.448 12.3422H562.7L554.32 31.9262Z" fill="#E0D9D9" fill-opacity="0.74"/>
<path d="M587.02 36.4382V17.1422C587.02 12.5342 589.913 10.2302 595.701 10.2302H613.245L615.174 11.4302V12.3422H595.4C591.742 12.3422 589.913 13.7822 589.913 16.6622V36.9182C589.913 39.7982 591.742 41.2382 595.4 41.2382H615.174V42.1502L613.245 43.3502H595.701C589.913 43.3502 587.02 41.0462 587.02 36.4382Z" fill="#E0D9D9" fill-opacity="0.74"/>
<path d="M623.889 43.3502V10.2302H626.783V43.3502H623.889Z" fill="#E0D9D9" fill-opacity="0.74"/>
<path d="M637.651 36.4382V17.1422C637.651 12.5342 640.545 10.2302 646.333 10.2302H660.621C666.408 10.2302 669.302 12.5342 669.302 17.1422V36.4382C669.302 41.0462 666.408 43.3502 660.621 43.3502H646.333C640.545 43.3502 637.651 41.0462 637.651 36.4382ZM640.545 36.9182C640.545 39.7982 642.374 41.2382 646.031 41.2382H660.982C664.6 41.2382 666.408 39.7982 666.408 36.9182V16.6622C666.408 13.7822 664.6 12.3422 660.982 12.3422H646.031C642.374 12.3422 640.545 13.7822 640.545 16.6622V36.9182ZM650.613 6.77424L658.089 0.198242L660.078 1.78224L652.301 8.07024L650.613 6.77424Z" fill="#E0D9D9" fill-opacity="0.74"/>
<path d="M680.173 43.3502V10.2302H683.488L708.568 40.1822V10.2302H711.462V43.3502H708.146L683.066 13.3982V43.3502H680.173Z" fill="#E0D9D9" fill-opacity="0.74"/>
<path d="M795.045 43.3502V10.2302H797.939V43.3502H795.045Z" fill="#E0D9D9" fill-opacity="0.56"/>
<path d="M809.41 43.3502V10.2302H812.726L837.805 40.1822V10.2302H840.699V43.3502H837.383L812.304 13.3982V43.3502H809.41Z" fill="#E0D9D9" fill-opacity="0.56"/>
<path d="M852.153 43.3502V10.2302H855.469L880.548 40.1822V10.2302H883.442V43.3502H880.126L855.047 13.3982V43.3502H852.153Z" fill="#E0D9D9" fill-opacity="0.56"/>
<path d="M894.292 36.4382V17.1422C894.292 12.5342 897.186 10.2302 902.974 10.2302H917.262C923.049 10.2302 925.943 12.5342 925.943 17.1422V36.4382C925.943 41.0462 923.049 43.3502 917.262 43.3502H902.974C897.186 43.3502 894.292 41.0462 894.292 36.4382ZM897.186 36.9182C897.186 39.7982 899.015 41.2382 902.672 41.2382H917.624C921.241 41.2382 923.049 39.7982 923.049 36.9182V16.6622C923.049 13.7822 921.241 12.3422 917.624 12.3422H902.672C899.015 12.3422 897.186 13.7822 897.186 16.6622V36.9182Z" fill="#E0D9D9" fill-opacity="0.56"/>
<path d="M932.352 10.8542L932.895 10.2302H935.186L948.268 41.2382H950.017L963.099 10.2302H965.39L965.872 10.8542L951.946 43.3502H946.279L932.352 10.8542Z" fill="#E0D9D9" fill-opacity="0.56"/>
<path d="M965.97 42.7262L980.378 10.2302H985.744L1000.09 42.7262L999.61 43.3502H997.259L993.28 34.0382H972.782L968.803 43.3502H966.512L965.97 42.7262ZM973.807 31.9262H992.315L983.935 12.3422H982.187L973.807 31.9262Z" fill="#E0D9D9" fill-opacity="0.56"/>
<path d="M1006.51 36.4382V17.1422C1006.51 12.5342 1009.4 10.2302 1015.19 10.2302H1032.73L1034.66 11.4302V12.3422H1014.89C1011.23 12.3422 1009.4 13.7822 1009.4 16.6622V36.9182C1009.4 39.7982 1011.23 41.2382 1014.89 41.2382H1034.66V42.1502L1032.73 43.3502H1015.19C1009.4 43.3502 1006.51 41.0462 1006.51 36.4382Z" fill="#E0D9D9" fill-opacity="0.56"/>
<path d="M1043.38 43.3502V10.2302H1046.27V43.3502H1043.38Z" fill="#E0D9D9" fill-opacity="0.56"/>
<path d="M1057.14 36.4382V17.1422C1057.14 12.5342 1060.03 10.2302 1065.82 10.2302H1080.11C1085.9 10.2302 1088.79 12.5342 1088.79 17.1422V36.4382C1088.79 41.0462 1085.9 43.3502 1080.11 43.3502H1065.82C1060.03 43.3502 1057.14 41.0462 1057.14 36.4382ZM1060.03 36.9182C1060.03 39.7982 1061.86 41.2382 1065.52 41.2382H1080.47C1084.09 41.2382 1085.9 39.7982 1085.9 36.9182V16.6622C1085.9 13.7822 1084.09 12.3422 1080.47 12.3422H1065.52C1061.86 12.3422 1060.03 13.7822 1060.03 16.6622V36.9182ZM1070.1 6.77424L1077.58 0.198242L1079.57 1.78224L1071.79 8.07024L1070.1 6.77424Z" fill="#E0D9D9" fill-opacity="0.56"/>
<path d="M1099.66 43.3502V10.2302H1102.98L1128.05 40.1822V10.2302H1130.95V43.3502H1127.63L1102.55 13.3982V43.3502H1099.66Z" fill="#E0D9D9" fill-opacity="0.56"/>
<path d="M1211.22 36.4382V17.1422C1211.22 12.5342 1214.11 10.2302 1219.9 10.2302H1237.45L1239.38 11.4302V12.3422H1219.6C1215.94 12.3422 1214.11 13.7822 1214.11 16.6622V36.9182C1214.11 39.7982 1215.94 41.2382 1219.6 41.2382H1239.38V42.1502L1237.45 43.3502H1219.9C1214.11 43.3502 1211.22 41.0462 1211.22 36.4382Z" fill="#E0D9D9" fill-opacity="0.31"/>
<path d="M1247.49 36.4382V17.1422C1247.49 12.5342 1250.38 10.2302 1256.17 10.2302H1270.46C1276.24 10.2302 1279.14 12.5342 1279.14 17.1422V36.4382C1279.14 41.0462 1276.24 43.3502 1270.46 43.3502H1256.17C1250.38 43.3502 1247.49 41.0462 1247.49 36.4382ZM1250.38 36.9182C1250.38 39.7982 1252.21 41.2382 1255.87 41.2382H1270.82C1274.44 41.2382 1276.24 39.7982 1276.24 36.9182V16.6622C1276.24 13.7822 1274.44 12.3422 1270.82 12.3422H1255.87C1252.21 12.3422 1250.38 13.7822 1250.38 16.6622V36.9182Z" fill="#E0D9D9" fill-opacity="0.31"/>
<path d="M1290.01 43.3502V10.2302H1294.47L1309.72 35.9582L1324.91 10.2302H1329.38V43.3502H1326.48V12.5822L1311.35 38.2622H1308.03L1292.9 12.5822V43.3502H1290.01Z" fill="#E0D9D9" fill-opacity="0.31"/>
<path d="M1340.82 43.3502V10.2302H1360.17C1365.96 10.2302 1368.85 12.5342 1368.85 17.1422V23.2862C1368.85 27.8942 1365.96 30.1982 1360.17 30.1982H1343.71V43.3502H1340.82ZM1343.71 28.0862H1360.53C1364.15 28.0862 1365.96 26.6302 1365.96 23.7182V16.6622C1365.96 13.7822 1364.15 12.3422 1360.53 12.3422H1343.71V28.0862Z" fill="#E0D9D9" fill-opacity="0.31"/>
<path d="M1378.5 43.3502V10.2302H1397.85C1403.64 10.2302 1406.53 12.5342 1406.53 17.1422V22.3262C1406.53 26.5822 1404.08 28.8702 1399.17 29.1902L1407.74 42.6782L1407.31 43.3502H1404.96L1395.98 29.2382H1381.39V43.3502H1378.5ZM1381.39 27.1262H1398.21C1401.83 27.1262 1403.64 25.6702 1403.64 22.7582V16.6622C1403.64 13.7822 1401.83 12.3422 1398.21 12.3422H1381.39V27.1262Z" fill="#E0D9D9" fill-opacity="0.31"/>
<path d="M1416.16 36.4382V17.1422C1416.16 12.5342 1419.06 10.2302 1424.84 10.2302H1439.13C1444.92 10.2302 1447.81 12.5342 1447.81 17.1422V36.4382C1447.81 41.0462 1444.92 43.3502 1439.13 43.3502H1424.84C1419.06 43.3502 1416.16 41.0462 1416.16 36.4382ZM1419.06 36.9182C1419.06 39.7982 1420.88 41.2382 1424.54 41.2382H1439.49C1443.11 41.2382 1444.92 39.7982 1444.92 36.9182V16.6622C1444.92 13.7822 1443.11 12.3422 1439.49 12.3422H1424.54C1420.88 12.3422 1419.06 13.7822 1419.06 16.6622V36.9182Z" fill="#E0D9D9" fill-opacity="0.31"/>
<path d="M1458.68 43.3502V10.2302H1463.14L1478.4 35.9582L1493.59 10.2302H1498.05V43.3502H1495.16V12.5822L1480.02 38.2622H1476.71L1461.58 12.5822V43.3502H1458.68Z" fill="#E0D9D9" fill-opacity="0.31"/>
<path d="M1509.49 43.3502V10.2302H1512.39V43.3502H1509.49Z" fill="#E0D9D9" fill-opacity="0.31"/>
<path d="M1522.05 42.1502V41.2382H1540.56C1544.17 41.2382 1545.98 39.7982 1545.98 36.9182V32.7422C1545.98 30.3742 1544.66 28.9822 1542 28.5662L1528.32 26.3582C1524.14 25.6862 1522.05 23.4462 1522.05 19.6382V17.1422C1522.05 12.5342 1524.94 10.2302 1530.73 10.2302H1545.8L1547.67 11.4302V12.3422H1530.43C1526.77 12.3422 1524.94 13.7822 1524.94 16.6622V20.0222C1524.94 22.4222 1526.27 23.8302 1528.92 24.2462L1542.61 26.4062C1546.79 27.0782 1548.88 29.3182 1548.88 33.1262V36.4382C1548.88 41.0462 1545.98 43.3502 1540.19 43.3502H1523.98L1522.05 42.1502Z" fill="#E0D9D9" fill-opacity="0.31"/>
<path d="M1557.93 36.4382V17.1422C1557.93 12.5342 1560.82 10.2302 1566.61 10.2302H1580.9C1586.69 10.2302 1589.58 12.5342 1589.58 17.1422V36.4382C1589.58 41.0462 1586.69 43.3502 1580.9 43.3502H1566.61C1560.82 43.3502 1557.93 41.0462 1557.93 36.4382ZM1560.82 36.9182C1560.82 39.7982 1562.65 41.2382 1566.31 41.2382H1581.26C1584.88 41.2382 1586.69 39.7982 1586.69 36.9182V16.6622C1586.69 13.7822 1584.88 12.3422 1581.26 12.3422H1566.31C1562.65 12.3422 1560.82 13.7822 1560.82 16.6622V36.9182Z" fill="#E0D9D9" fill-opacity="0.31"/>
</svg>
